<?xml version="1.0" standalone="no"?>
<!DOCTYPE svg PUBLIC "-//W3C//DTD SVG 20010904//EN"
 "http://www.w3.org/TR/2001/REC-SVG-20010904/DTD/svg10.dtd">
<svg version="1.0" xmlns="http://www.w3.org/2000/svg"
 width="300.000000pt" height="300.000000pt" viewBox="0 0 300.000000 300.000000"
 preserveAspectRatio="xMidYMid meet">
<metadata>
Created by potrace 1.14, written by Peter Selinger 2001-2017
</metadata>
<g transform="translate(0.000000,300.000000) scale(0.100000,-0.100000)"
fill="#000000" stroke="none">
<path d="M670 2420 c0 -6 47 -58 104 -118 57 -59 120 -125 141 -147 20 -22
114 -120 208 -218 95 -99 176 -187 180 -197 9 -17 -41 -91 -430 -635 -91 -128
-109 -163 -77 -151 9 3 24 6 34 6 10 0 44 25 76 56 33 31 91 85 129 122 39 36
104 97 145 136 100 94 390 367 459 432 l54 52 -61 43 c-33 24 -68 50 -79 57
-10 6 -151 105 -313 219 -500 349 -506 353 -539 353 -17 0 -31 -5 -31 -10z"/>
<path d="M2175 2020 c-11 -5 -49 -36 -85 -70 -59 -56 -288 -273 -396 -375 -23
-22 -103 -98 -179 -169 -75 -71 -147 -138 -161 -148 -13 -11 -24 -25 -24 -32
0 -10 664 -482 898 -639 52 -34 104 -48 116 -29 5 9 -51 69 -551 591 -46 47
-83 94 -83 105 0 10 22 48 49 85 26 36 129 181 228 321 99 140 196 278 216
306 20 28 34 54 30 57 -9 9 -33 8 -58 -3z"/>
</g>
</svg>
